<?xml version="1.0" encoding="utf-8"?>
<!-- Generated by IcoMoon.io -->
<!DOCTYPE svg PUBLIC "-//W3C//DTD SVG 1.1//EN" "http://www.w3.org/Graphics/SVG/1.1/DTD/svg11.dtd">
<svg version="1.1" xmlns="http://www.w3.org/2000/svg" xmlns:xlink="http://www.w3.org/1999/xlink" width="564" height="100" viewBox="0 0 564 100">
<g transform="translate(0 0)">
	<path d="M83.203 0h-66.406c-9.238 0-16.797 7.559-16.797 16.797v66.406c0 9.238 7.559 16.797 16.797 16.797h66.406c9.238 0 16.797-7.559 16.797-16.797v-66.406c0-9.238-7.559-16.797-16.797-16.797zM37.5 81.25h-12.5v-43.75h12.5v43.75zM31.25 31.25c-3.452 0-6.25-2.798-6.25-6.25s2.798-6.25 6.25-6.25 6.25 2.798 6.25 6.25-2.798 6.25-6.25 6.25zM81.25 81.25h-12.5v-25c0-3.452-2.798-6.25-6.25-6.25s-6.25 2.798-6.25 6.25v25h-12.5v-43.75h12.5v7.761c2.578-3.541 6.519-7.761 10.938-7.761 7.767 0 14.063 6.996 14.063 15.625v28.125z" fill="#120031" />
</g>
<g transform="translate(116 0)">
	<path d="M50 0c-27.614 0-50 22.386-50 50s22.386 50 50 50 50-22.386 50-50-22.386-50-50-50zM79.693 79.693c-3.859 3.859-8.351 6.888-13.35 9.003-1.27 0.537-2.56 1.009-3.867 1.415v-7.494c0-3.939-1.351-6.836-4.053-8.691 1.693-0.163 3.247-0.391 4.663-0.684s2.913-0.716 4.492-1.27 2.995-1.213 4.248-1.978 2.458-1.758 3.613-2.979 2.124-2.604 2.905-4.15 1.4-3.402 1.855-5.566 0.684-4.549 0.684-7.153c0-5.046-1.644-9.342-4.932-12.891 1.497-3.906 1.335-8.154-0.488-12.744l-1.221-0.146c-0.846-0.098-2.368 0.26-4.565 1.074s-4.663 2.148-7.397 4.004c-3.874-1.074-7.894-1.611-12.061-1.611-4.199 0-8.203 0.537-12.012 1.611-1.725-1.172-3.361-2.14-4.907-2.905-1.546-0.765-2.783-1.286-3.711-1.563s-1.79-0.448-2.588-0.513-1.31-0.081-1.538-0.049-0.391 0.065-0.488 0.098c-1.823 4.622-1.986 8.871-0.488 12.744-3.288 3.548-4.932 7.845-4.932 12.891 0 2.604 0.228 4.989 0.684 7.153s1.074 4.020 1.855 5.566 1.75 2.93 2.905 4.15 2.36 2.213 3.613 2.979 2.669 1.424 4.248 1.978 3.076 0.977 4.492 1.27 2.97 0.521 4.663 0.684c-2.669 1.823-4.004 4.72-4.004 8.691v7.64c-1.474-0.439-2.928-0.957-4.355-1.561-4.999-2.115-9.491-5.144-13.35-9.003-3.859-3.859-6.888-8.351-9.003-13.35-2.187-5.172-3.296-10.67-3.296-16.343s1.109-11.171 3.297-16.343c2.115-4.999 5.144-9.491 9.003-13.35s8.351-6.888 13.35-9.003c5.172-2.188 10.67-3.297 16.343-3.297s11.171 1.109 16.343 3.297c5 2.115 9.491 5.144 13.35 9.003 3.859 3.859 6.888 8.351 9.003 13.35 2.187 5.172 3.296 10.67 3.296 16.343s-1.109 11.171-3.297 16.343c-2.115 4.999-5.144 9.491-9.003 13.35z" fill="#120031" />
</g>
<g transform="translate(232 0)">
	<path d="M0 6.25v87.5h100v-87.5h-100zM93.75 87.5h-87.5v-75h87.5v75zM87.5 18.75h-75v62.5h75v-62.5zM43.75 50h-6.25v6.25h-6.25v6.25h-6.25v-6.25h6.25v-6.25h6.25v-6.25h-6.25v-6.25h-6.25v-6.25h6.25v6.25h6.25v6.25h6.25v6.25zM68.75 62.5h-18.75v-6.25h18.75v6.25z" fill="#120031" />
</g>
<g transform="translate(348 0)">
	<path d="M84.375 0c8.629 0 15.625 6.996 15.625 15.625 0 3.518-1.163 6.763-3.125 9.375l-6.25 6.25-21.875-21.875 6.25-6.25c2.612-1.962 5.857-3.125 9.375-3.125zM6.25 71.875l-6.25 28.125 28.125-6.25 57.813-57.813-21.875-21.875-57.813 57.813zM69.881 35.506l-43.75 43.75-5.386-5.386 43.75-43.75 5.386 5.386z" fill="#120031" />
</g>
<g transform="translate(464 0)">
	<path d="M90.625 12.5h-81.25c-5.156 0-9.375 4.219-9.375 9.375v62.5c0 5.156 4.219 9.375 9.375 9.375h81.25c5.156 0 9.375-4.219 9.375-9.375v-62.5c0-5.156-4.219-9.375-9.375-9.375zM38.939 53.747l-26.439 20.595v-48.988l26.439 28.394zM17.225 25h65.551l-32.775 24.609-32.775-24.609zM39.97 54.853l10.030 10.772 10.030-10.772 20.562 26.397h-61.184l20.562-26.397zM61.061 53.747l26.439-28.394v48.988l-26.439-20.595z" fill="#120031" />
</g>
</svg>
