<?xml version="1.0" encoding="utf-8"?>
<!-- Generated by IcoMoon.io -->
<!DOCTYPE svg PUBLIC "-//W3C//DTD SVG 1.1//EN" "http://www.w3.org/Graphics/SVG/1.1/DTD/svg11.dtd">
<svg version="1.1" xmlns="http://www.w3.org/2000/svg" xmlns:xlink="http://www.w3.org/1999/xlink" width="100" height="100" viewBox="0 0 100 100">
	<path d="M90.625 12.5h-81.25c-5.156 0-9.375 4.219-9.375 9.375v62.5c0 5.156 4.219 9.375 9.375 9.375h81.25c5.156 0 9.375-4.219 9.375-9.375v-62.5c0-5.156-4.219-9.375-9.375-9.375zM38.939 53.747l-26.439 20.595v-48.988l26.439 28.394zM17.225 25h65.551l-32.775 24.609-32.775-24.609zM39.97 54.853l10.030 10.772 10.030-10.772 20.562 26.397h-61.184l20.562-26.397zM61.061 53.747l26.439-28.394v48.988l-26.439-20.595z" fill="#120031" />
</svg>
